<mxfile host="app.diagrams.net" agent="Mozilla/5.0 (Macintosh; Intel Mac OS X 10_15_7) AppleWebKit/605.1.15 (KHTML, like Gecko) Version/18.1 Safari/605.1.15" version="26.0.16">
  <diagram name="第 1 页" id="442niqhSu2lS9myGtu38">
    <mxGraphModel dx="559" dy="856" grid="1" gridSize="10" guides="1" tooltips="1" connect="1" arrows="1" fold="1" page="1" pageScale="1" pageWidth="827" pageHeight="1169" math="0" shadow="0">
      <root>
        <mxCell id="0" />
        <mxCell id="1" parent="0" />
        <mxCell id="cAAzMpG0Tfow3gVaOTzU-6" value="" style="rounded=1;whiteSpace=wrap;html=1;gradientColor=light-dark(#FFEFD5,#E6F7FF);gradientDirection=south;strokeColor=default;fillColor=default;opacity=20;" parent="1" vertex="1">
          <mxGeometry x="80" y="320" width="280" height="240" as="geometry" />
        </mxCell>
        <mxCell id="cAAzMpG0Tfow3gVaOTzU-11" style="edgeStyle=orthogonalEdgeStyle;rounded=0;orthogonalLoop=1;jettySize=auto;html=1;strokeColor=#156082;targetPerimeterSpacing=0;fontSize=11;strokeWidth=3;endArrow=block;endFill=1;endSize=2;" parent="1" target="cAAzMpG0Tfow3gVaOTzU-10" edge="1">
          <mxGeometry relative="1" as="geometry">
            <mxPoint x="225" y="440" as="sourcePoint" />
          </mxGeometry>
        </mxCell>
        <mxCell id="cAAzMpG0Tfow3gVaOTzU-9" value="&lt;p style=&quot;language:zh-CN;margin-top:0pt;margin-bottom:0pt;margin-left:0in;&lt;br/&gt;text-align:left;direction:ltr;unicode-bidi:embed;mso-line-break-override:none;&lt;br/&gt;word-break:normal;punctuation-wrap:hanging&quot;&gt;&lt;span style=&quot;font-size: 10.5pt; font-family: Aptos; font-weight: bold;&quot;&gt;Item Prompt&lt;/span&gt;&lt;span style=&quot;font-size: 10.5pt; font-family: 等线; font-weight: bold;&quot;&gt;：&lt;/span&gt;&lt;/p&gt;&lt;p style=&quot;language:zh-CN;margin-top:0pt;margin-bottom:0pt;margin-left:0in;&lt;br/&gt;text-align:left;direction:ltr;unicode-bidi:embed;mso-line-break-override:none;&lt;br/&gt;word-break:normal;punctuation-wrap:hanging&quot;&gt;&lt;span style=&quot;font-size: 10.5pt; font-family: Aptos;&quot;&gt;{&amp;lt;title&amp;gt;, &amp;lt;brand&amp;gt;,&lt;br&gt;&amp;lt;categories&amp;gt;, &amp;lt;description&amp;gt;}&lt;/span&gt;&lt;/p&gt;&lt;p style=&quot;language:zh-CN;margin-top:0pt;margin-bottom:0pt;margin-left:0in;&lt;br/&gt;text-align:left;direction:ltr;unicode-bidi:embed;mso-line-break-override:none;&lt;br/&gt;word-break:normal;punctuation-wrap:hanging&quot;&gt;&lt;span style=&quot;font-family: Aptos; font-size: 10.5pt; background-color: transparent; color: light-dark(rgb(0, 0, 0), rgb(255, 255, 255));&quot;&gt;You will assist me in summarizing which&lt;/span&gt;&lt;/p&gt;&lt;p style=&quot;language:zh-CN;margin-top:0pt;margin-bottom:0pt;margin-left:0in;&lt;br/&gt;text-align:left;direction:ltr;unicode-bidi:embed;mso-line-break-override:none;&lt;br/&gt;word-break:normal;punctuation-wrap:hanging&quot;&gt;&lt;span style=&quot;font-size: 10.5pt; font-family: Aptos;&quot;&gt;types of users might &lt;/span&gt;&lt;span style=&quot;font-size: 10.5pt; font-family: Aptos; color: red;&quot;&gt;enjoy&lt;/span&gt;&lt;span style=&quot;font-size: 10.5pt; font-family: Aptos;&quot;&gt; a&lt;br&gt;specific toy product.&lt;/span&gt;&lt;/p&gt;" style="text;html=1;align=left;verticalAlign=middle;resizable=0;points=[];autosize=1;strokeColor=none;fillColor=none;" parent="1" vertex="1">
          <mxGeometry x="100" y="325" width="290" height="120" as="geometry" />
        </mxCell>
        <mxCell id="cAAzMpG0Tfow3gVaOTzU-10" value="&lt;p style=&quot;margin-top: 0pt; margin-bottom: 0pt; margin-left: 0in; direction: ltr; unicode-bidi: embed; word-break: normal;&quot;&gt;&lt;span style=&quot;font-size: 10.5pt; font-family: Aptos; font-weight: bold;&quot;&gt;Item Profile&lt;/span&gt;&lt;span style=&quot;font-size: 10.5pt; font-family: 等线; font-weight: bold;&quot;&gt;：&lt;/span&gt;&lt;/p&gt;&lt;p style=&quot;margin-top: 0pt; margin-bottom: 0pt; margin-left: 0in; direction: ltr; unicode-bidi: embed; word-break: normal;&quot;&gt;&lt;span style=&quot;font-size: 10.5pt; font-family: Aptos;&quot;&gt;{&amp;lt;summarization&amp;gt;: &amp;lt;the types of&lt;br&gt;users who might &lt;/span&gt;&lt;span style=&quot;font-size: 10.5pt; font-family: Aptos; color: red;&quot;&gt;enjoy&lt;/span&gt;&lt;span style=&quot;font-size: 10.5pt; font-family: Aptos;&quot;&gt; this&lt;br&gt;toy product&amp;gt;, …}&lt;/span&gt;&lt;/p&gt;" style="text;html=1;align=left;verticalAlign=middle;resizable=0;points=[];autosize=1;strokeColor=none;fillColor=none;" parent="1" vertex="1">
          <mxGeometry x="100" y="470" width="250" height="80" as="geometry" />
        </mxCell>
      </root>
    </mxGraphModel>
  </diagram>
</mxfile>
